<svg height="24" width="24" xmlns="http://www.w3.org/2000/svg"><path d="M19.499 18.97c-.266 0-.805-.063-1.433-.488-.474-.323-.932-.84-1.375-1.341-.673-.761-1.317-1.466-1.835-1.303-.706.223-.874 1.529-.864 2.189-.001.065-.016.326-.192.514-.132.132-.309.184-.643.194l-1.483.003a2.25 2.25 0 0 1-.19.005c-.751 0-3.384-.188-5.727-2.601C2.738 13.035.068 6.896.041 6.834l.069-.635.014-.01.155-.077c.195-.068.422-.073.478-.073l3.35-.021c.092.009.402.067.619.219.192.144.299.388.304.399.011.027.558 1.397 1.292 2.642 1.316 2.251 2.015 3.015 2.583 2.714.353-.19.646-1.327.499-3.433.004-.431-.064-1.282-.358-1.67-.184-.249-.456-.394-.651-.472l-.652-.26.529-.46c.077-.067.158-.122.24-.163.451-.217 1.144-.504 1.993-.504h1.173c.598 0 .921.137 1.18.247.118.049.221.093.331.12.916.216.883 1.068.823 2.614-.018.46-.039.984-.039 1.575 0 .133-.004.275-.008.42-.021.747-.047 1.661.467 1.99.288.179.924-.012 2.51-2.678.756-1.276 1.31-2.728 1.315-2.742.015-.035.137-.3.321-.415a.718.718 0 0 1 .37-.09l.134.007L22.7 6.05c-.002-.001.11-.012.26-.012.512 0 .739.123.797.16l.117.076.051.131c.194.514-.438 1.737-1.882 3.636-.31.406-.582.757-.82 1.062-1.616 2.07-1.616 2.07.136 3.677 1.526 1.398 2.146 2.268 2.397 2.751.207.334.258.637.139.874-.229.444-.971.503-1.002.506l-3.291.054a.613.613 0 0 1-.103.005zm-4.478-4.014c.882 0 1.545.749 2.313 1.616.408.462.83.938 1.215 1.199.467.316.846.342.951.342v.428l.035-.43 3.32-.056a.915.915 0 0 0 .19-.043c-.009-.019-.021-.038-.034-.061-.194-.371-.722-1.157-2.23-2.541-2.096-1.921-2.12-2.419-.233-4.835.238-.303.508-.65.814-1.053 1.136-1.495 1.532-2.268 1.67-2.627a2.99 2.99 0 0 0-.271.008l-3.701.03-.041-.002c-.081.255-.624 1.613-1.34 2.824-1.643 2.758-2.453 3.139-3.085 3.14-.225 0-.433-.06-.619-.176-.926-.594-.892-1.826-.867-2.726.005-.149.009-.283.009-.409 0-.604.021-1.139.039-1.609.061-1.539-.001-1.708-.164-1.746a3.025 3.025 0 0 1-.466-.164c-.228-.097-.423-.18-.848-.18h-1.173c-.392 0-.75.081-1.053.184.1.088.195.19.28.306.52.686.531 1.919.528 2.159.165 2.354-.155 3.782-.95 4.211a1.345 1.345 0 0 1-.638.163c-.912 0-1.692-.808-3.088-3.199-.78-1.321-1.34-2.736-1.346-2.75-.036-.042-.147-.08-.205-.091l-3.026.025c.643 1.403 2.906 6.123 5.364 8.654 2.11 2.171 4.447 2.34 5.113 2.34.09 0 .146-.004.16-.005l1.492-.002c.01-.613.153-2.447 1.462-2.858.135-.044.278-.066.423-.066z"/></svg>