<svg xmlns="http://www.w3.org/2000/svg" xmlns:xlink="http://www.w3.org/1999/xlink"><symbol id="icon-burger" viewBox="0 0 32 32"><g id="Menu"><path d="M1,7h30c0.552,0,1-0.448,1-1c0-0.552-0.448-1-1-1H1C0.448,5,0,5.448,0,6C0,6.552,0.448,7,1,7z"/><path d="M31,15H1c-0.552,0-1,0.448-1,1c0,0.552,0.448,1,1,1h30c0.552,0,1-0.448,1-1C32,15.448,31.552,15,31,15z"/><path d="M31,25H1c-0.552,0-1,0.448-1,1c0,0.552,0.448,1,1,1h30c0.552,0,1-0.448,1-1C32,25.448,31.552,25,31,25z"/></g><g/><g/><g/><g/><g/><g/></symbol><symbol id="icon-instagram" viewBox="0 0 512 512"><g><path d="M505,257c0,34.8-0.7,69.7,0.2,104.5c1.5,61.6-37.2,109.2-86.5,130.4c-19.8,8.5-40.6,13-62.1,13c-67.3,0.1-134.7,1-202-0.3   c-50.7-1-92.4-22.2-122.3-64c-15.7-22-23.2-47-23.2-74.1c0-71.7,0-143.3,0-215c0-58.5,28.5-99.4,79.1-126C110.2,14,134.1,9.1,159,9   c65.3,0,130.7-0.4,196,0.2c50.7,0.4,93,19.8,124.2,60.6c17.4,22.8,25.8,49,25.8,77.8C505,184,505,220.5,505,257z M46,257   c0,36.7,0,73.3,0,110c0,16.4,3.8,31.8,12.3,45.7c22.3,36.5,56,54.3,97.8,55c67.1,1,134.3,0.4,201.5,0.2c16.5,0,32.5-3.4,47.4-10.5   c40.6-19.4,63.3-50.3,63.1-96.7c-0.4-71-0.1-142-0.1-213c0-20.1-5.7-38.5-17.6-54.7c-23-31.1-54.8-46.4-92.8-46.8   c-67-0.8-134-0.3-201-0.2c-14.3,0-28.1,2.9-41.5,7.9c-36.8,13.7-71,48.4-69.4,99.5C46.9,188,46,222.5,46,257z"/><path d="M257.6,363c-64.5,0-116.5-51.4-116.6-115.4c-0.1-63,52.3-114.6,116.4-114.6c64.3-0.1,116.5,51.4,116.6,114.9   C374,311.3,321.9,362.9,257.6,363z M257.6,326c43.9,0,79.5-35.1,79.4-78.3c-0.1-42.8-35.7-77.8-79.4-77.8   c-43.9,0-79.7,34.9-79.7,78C178,291.1,213.7,326.1,257.6,326z"/><path d="M387.5,98c13.5,0,24.5,11.5,24.5,25.6c-0.1,14.1-11.2,25.5-24.7,25.4c-13.3-0.1-24.2-11.5-24.2-25.3   C363,109.6,374,98,387.5,98z"/></g></symbol><symbol id="icon-twitter" viewBox="0 0 612.001 612.002">
<g>
	<path d="M197.553,557.219c-68.018,0-134.159-19.371-191.294-56.047c-5.333-3.428-7.591-10.066-5.469-16.051
		c2.122-5.986,8.189-9.795,14.42-8.896c47.912,5.576,97.919-4.164,139.873-28.16c-41.491-12.461-75.228-44.594-88.859-87.199
		c-1.469-4.598-0.408-9.604,2.802-13.195c1.959-2.178,4.543-3.646,7.346-4.244c-32.404-24.678-52.864-63.639-52.864-106.436
		c0-4.816,2.558-10.012,6.72-12.461c4.163-2.449,9.305-3.21,13.495-0.925c1.197,0.68,2.421,1.333,3.646,1.932
		c-14.719-21.739-22.881-47.749-22.881-74.902c0-23.562,6.23-46.796,18.093-67.147c2.231-3.863,6.23-6.366,10.692-6.72
		c4.435-0.326,8.761,1.524,11.59,4.952c55.04,67.501,134.703,110.298,220.624,119.086c-0.381-4.108-0.571-8.298-0.571-12.434
		c0-73.65,59.937-133.588,133.587-133.588c34.199,0,67.311,13.25,92.015,36.648c22.719-5.197,44.484-13.93,64.808-25.983
		c4.87-2.83,10.965-2.422,15.399,1.061c4.408,3.537,6.204,9.414,4.489,14.801c-4.326,13.522-10.746,26.173-18.99,37.519
		c5.659-1.959,11.209-4.163,16.678-6.584c5.469-2.503,12.025-0.979,15.916,3.7c3.891,4.625,4.245,11.291,0.898,16.324
		c-15.808,23.562-35.07,44.103-57.299,61.162c0.082,2.938,0.109,5.904,0.109,8.842C552.527,376.727,419.728,557.219,197.553,557.219
		z M68.863,503.676c40.458,17.33,84.125,26.336,128.69,26.336c205.17,0,327.766-166.645,327.766-327.765
		c0-4.979-0.136-9.985-0.326-14.964c-0.19-4.571,1.932-8.924,5.632-11.59c9.795-7.074,18.99-14.882,27.507-23.371
		c-8.87,2.041-17.875,3.619-26.99,4.707c-6.312,0.898-12.406-2.993-14.501-9.087c-2.068-6.067,0.381-12.76,5.877-16.08
		c10.801-6.475,20.27-14.746,28.051-24.296c-13.577,5.197-27.562,9.25-41.845,12.025c-4.571,0.953-9.333-0.571-12.543-4.026
		c-20.024-21.331-48.348-33.574-77.677-33.574c-58.659,0-106.38,47.721-106.38,106.38c0,8.135,0.925,16.324,2.774,24.269
		c0.952,4.136-0.081,8.516-2.829,11.808c-2.721,3.265-6.829,5.523-11.101,4.843c-92.858-4.68-180.33-45.953-243.179-114.189
		c-4.026,11.373-6.094,23.398-6.094,35.533c0,35.696,17.685,68.753,47.286,88.533c5.061,3.374,7.264,9.658,5.414,15.454
		c-1.85,5.768-7.591,9.25-13.358,9.468c-12.978-0.408-25.875-2.721-38.172-6.856c8.407,42.144,40.811,75.555,83.146,84.07
		c6.203,1.252,10.719,6.557,10.91,12.869c0.218,6.285-3.917,11.916-9.985,13.604c-11.726,3.184-24.051,4.979-36.104,4.734
		c18.229,32.24,52.456,53.217,90.655,53.979c5.741,0.109,10.801,3.863,12.624,9.305s0,11.482-4.517,15.02
		C161.368,480.768,116.584,498.779,68.863,503.676z"/>
</g>
<g>
</g>
<g>
</g>
<g>
</g>
<g>
</g>
<g>
</g>
<g>
</g>
<g>
</g>
<g>
</g>
<g>
</g>
<g>
</g>
<g>
</g>
<g>
</g>
<g>
</g>
<g>
</g>
<g>
</g>
</symbol><symbol id="icon-vk" viewBox="0 0 24 24"><g><g><g><g><g><path d="M19.499,18.97c-0.266,0-0.805-0.063-1.433-0.488c-0.474-0.323-0.932-0.84-1.375-1.341       c-0.673-0.761-1.317-1.466-1.835-1.303c-0.706,0.223-0.874,1.529-0.864,2.189c-0.001,0.065-0.016,0.326-0.192,0.514       c-0.132,0.132-0.309,0.184-0.643,0.194l-1.483,0.003c0.001,0.001-0.071,0.005-0.19,0.005c-0.751,0-3.384-0.188-5.727-2.601       c-3.019-3.107-5.689-9.246-5.716-9.308L0.11,6.199c0.005-0.003,0.01-0.007,0.014-0.01l0.155-0.077       c0.195-0.068,0.422-0.073,0.478-0.073l3.35-0.021c0.092,0.009,0.402,0.067,0.619,0.219C4.918,6.381,5.025,6.625,5.03,6.636       c0.011,0.027,0.558,1.397,1.292,2.642c1.316,2.251,2.015,3.015,2.583,2.714c0.353-0.19,0.646-1.327,0.499-3.433       c0.004-0.431-0.064-1.282-0.358-1.67C8.862,6.64,8.59,6.495,8.395,6.417l-0.652-0.26l0.529-0.46       c0.077-0.067,0.158-0.122,0.24-0.163C8.963,5.317,9.656,5.03,10.505,5.03h1.173c0.598,0,0.921,0.137,1.18,0.247       c0.118,0.049,0.221,0.093,0.331,0.12c0.916,0.216,0.883,1.068,0.823,2.614c-0.018,0.46-0.039,0.984-0.039,1.575       c0,0.133-0.004,0.275-0.008,0.42c-0.021,0.747-0.047,1.661,0.467,1.99c0.288,0.179,0.924-0.012,2.51-2.678       c0.756-1.276,1.31-2.728,1.315-2.742c0.015-0.035,0.137-0.3,0.321-0.415c0.122-0.075,0.268-0.09,0.37-0.09l0.134,0.007       L22.7,6.05c-0.002-0.001,0.11-0.012,0.26-0.012c0.512,0,0.739,0.123,0.797,0.16l0.117,0.076l0.051,0.131       c0.194,0.514-0.438,1.737-1.882,3.636c-0.31,0.406-0.582,0.757-0.82,1.062c-1.616,2.07-1.616,2.07,0.136,3.677       c1.526,1.398,2.146,2.268,2.397,2.751c0.207,0.334,0.258,0.637,0.139,0.874c-0.229,0.444-0.971,0.503-1.002,0.506l-3.291,0.054       C19.607,18.966,19.563,18.97,19.499,18.97z M15.021,14.956c0.882,0,1.545,0.749,2.313,1.616       c0.408,0.462,0.83,0.938,1.215,1.199c0.467,0.316,0.846,0.342,0.951,0.342v0.428l0.035-0.43l3.32-0.056       c0.055-0.005,0.127-0.022,0.19-0.043c-0.009-0.019-0.021-0.038-0.034-0.061c-0.194-0.371-0.722-1.157-2.23-2.541       c-2.096-1.921-2.12-2.419-0.233-4.835c0.238-0.303,0.508-0.65,0.814-1.053c1.136-1.495,1.532-2.268,1.67-2.627       c-0.112-0.003-0.25,0.006-0.271,0.008l-3.701,0.03l-0.041-0.002c-0.081,0.255-0.624,1.613-1.34,2.824       c-1.643,2.758-2.453,3.139-3.085,3.14c-0.225,0-0.433-0.06-0.619-0.176c-0.926-0.594-0.892-1.826-0.867-2.726       c0.005-0.149,0.009-0.283,0.009-0.409c0-0.604,0.021-1.139,0.039-1.609c0.061-1.539-0.001-1.708-0.164-1.746       c-0.155-0.038-0.304-0.095-0.466-0.164c-0.228-0.097-0.423-0.18-0.848-0.18h-1.173c-0.392,0-0.75,0.081-1.053,0.184       c0.1,0.088,0.195,0.19,0.28,0.306c0.52,0.686,0.531,1.919,0.528,2.159c0.165,2.354-0.155,3.782-0.95,4.211       c-0.203,0.108-0.417,0.163-0.638,0.163c-0.912,0-1.692-0.808-3.088-3.199c-0.78-1.321-1.34-2.736-1.346-2.75       C4.202,6.917,4.091,6.879,4.033,6.868L1.007,6.893c0.643,1.403,2.906,6.123,5.364,8.654c2.11,2.171,4.447,2.34,5.113,2.34       c0.09,0,0.146-0.004,0.16-0.005l1.492-0.002c0.01-0.613,0.153-2.447,1.462-2.858C14.733,14.978,14.876,14.956,15.021,14.956z"/></g></g></g></g></g></symbol></svg>